<svg width="59" height="60" viewBox="0 0 59 60" fill="none" xmlns="http://www.w3.org/2000/svg">
<circle cx="29.6668" cy="30.0577" r="29.3333" fill="white"/>
<path d="M33.8234 18.4174C34.074 18.199 34.3915 18.0725 34.7236 18.0586C35.0557 18.0448 35.3827 18.1446 35.6505 18.3414C35.9184 18.5383 36.1112 18.8205 36.1972 19.1416C36.2832 19.4628 36.2572 19.8036 36.1236 20.108L33.2028 26.7839H37.741C39.5112 26.7839 40.3281 28.9826 38.9876 30.1376L25.5191 41.7488C25.3054 41.9353 25.0346 42.0436 24.7513 42.0562C24.4679 42.0687 24.1887 41.9846 23.9593 41.8177C23.73 41.6508 23.5641 41.411 23.4888 41.1375C23.4135 40.8641 23.4333 40.5731 23.545 40.3124L26.4941 33.3278H21.7803C20.0145 33.3278 19.1955 31.1378 20.5282 29.9795L33.8234 18.4185V18.4174ZM34.3163 20.157L21.6015 31.213C21.5594 31.2494 21.5295 31.2978 21.5157 31.3517C21.502 31.4057 21.505 31.4625 21.5245 31.5146C21.544 31.5667 21.5789 31.6116 21.6246 31.6433C21.6704 31.675 21.7247 31.6919 21.7803 31.6918H27.7244C27.8595 31.6914 27.9926 31.7245 28.1117 31.7882C28.2309 31.8518 28.3324 31.944 28.4072 32.0565C28.482 32.169 28.5277 32.2983 28.5402 32.4328C28.5528 32.5673 28.5318 32.7028 28.4791 32.8272L25.6882 39.4431L37.9199 28.8987C37.9619 28.8622 37.9918 28.8138 38.0056 28.7599C38.0194 28.706 38.0163 28.6492 37.9968 28.5971C37.9774 28.545 37.9424 28.5001 37.8967 28.4684C37.851 28.4367 37.7966 28.4198 37.741 28.4199H31.9518C31.816 28.4198 31.6824 28.3859 31.563 28.3213C31.4435 28.2567 31.3421 28.1633 31.2677 28.0497C31.1934 27.9361 31.1485 27.8057 31.1371 27.6704C31.1257 27.5351 31.1482 27.3991 31.2025 27.2747L34.3163 20.157Z" fill="black"/>
</svg>
