<svg width="59" height="60" viewBox="0 0 59 60" fill="none" xmlns="http://www.w3.org/2000/svg">
<circle cx="29.3333" cy="30.0577" r="29.3333" fill="white"/>
<path fill-rule="evenodd" clip-rule="evenodd" d="M20.5859 37.4806C18.7074 35.4187 17.5646 32.6965 17.5646 29.7118C17.5646 23.2751 22.8769 18.0571 29.4298 18.0571C35.9829 18.0571 41.2952 23.2751 41.2952 29.7118C41.2952 34.2631 38.6383 38.2034 34.7657 40.122C32.3964 41.3573 29.6933 42.0571 26.824 42.0571C23.3081 42.0571 20.042 41.0065 17.3335 39.2075C17.3335 39.2075 19.1498 39.0094 20.5854 37.481L20.5859 37.4806ZM35.0036 35.4799C38.0733 32.4103 38.0733 27.4334 35.0036 24.3638C33.5802 22.9404 31.7467 22.1775 29.8834 22.0742C29.8272 20.6762 30.5797 19.7317 30.5834 19.7271L30.5826 19.7272L30.5832 19.7265C28.4417 20.1402 26.3968 21.1762 24.7386 22.8344C23.4669 24.1061 22.5614 25.6052 22.0216 27.2008C22.1006 26.9915 22.1887 26.7849 22.2859 26.5816C22.174 26.8669 22.0729 27.1584 21.9815 27.4567C21.0825 30.1858 21.717 33.3095 23.8874 35.4799C26.9572 38.5496 31.934 38.5496 35.0036 35.4799Z" fill="black"/>
<path fill-rule="evenodd" clip-rule="evenodd" d="M25.4551 29.1141V30.0906V30.741C25.4551 31.3903 25.9814 31.9166 26.6307 31.9166C27.2799 31.9166 27.8062 31.3903 27.8062 30.741V30.0896V29.1141C27.8062 28.4649 27.2799 27.9385 26.6307 27.9385C25.9814 27.9385 25.4551 28.4649 25.4551 29.1141Z" fill="black"/>
<path fill-rule="evenodd" clip-rule="evenodd" d="M31.2734 29.1141V30.0906V30.741C31.2734 31.3903 31.7998 31.9166 32.449 31.9166C33.0982 31.9166 33.6246 31.3903 33.6246 30.741V30.0896V29.1141C33.6246 28.4649 33.0982 27.9385 32.449 27.9385C31.7998 27.9385 31.2734 28.4649 31.2734 29.1141Z" fill="black"/>
</svg>
