<svg width="59" height="60" viewBox="0 0 59 60" fill="none" xmlns="http://www.w3.org/2000/svg">
<circle cx="29.6668" cy="30.0577" r="29.3333" fill="white"/>
<path d="M29.6667 18.0574C23.0499 18.0574 17.6667 23.4406 17.6667 30.0574C17.6667 36.6742 23.0499 42.0574 29.6667 42.0574C36.2835 42.0574 41.6667 36.6742 41.6667 30.0574C41.6667 23.4406 36.2835 18.0574 29.6667 18.0574ZM33.8583 26.4574C34.0976 26.4513 34.3357 26.4931 34.5585 26.5805C34.7813 26.6678 34.9844 26.7989 35.1558 26.966C35.3271 27.1331 35.4633 27.3328 35.5562 27.5534C35.6492 27.7739 35.697 28.0109 35.6969 28.2502C35.6968 28.4895 35.6488 28.7264 35.5557 28.9469C35.4627 29.1674 35.3264 29.367 35.1549 29.534C34.9834 29.701 34.7803 29.8319 34.5574 29.9191C34.3345 30.0063 34.0964 30.048 33.8571 30.0418C33.3899 30.0295 32.9458 29.8352 32.6197 29.5004C32.2936 29.1655 32.1112 28.7164 32.1113 28.249C32.1115 27.7815 32.2942 27.3326 32.6206 26.998C32.9469 26.6633 33.3911 26.4693 33.8583 26.4574ZM25.4667 26.4574C25.7032 26.4575 25.9373 26.5041 26.1558 26.5947C26.3742 26.6852 26.5726 26.8179 26.7398 26.9852C26.9069 27.1524 27.0395 27.351 27.1299 27.5695C27.2203 27.788 27.2668 28.0221 27.2667 28.2586C27.2667 28.495 27.22 28.7292 27.1295 28.9476C27.0389 29.166 26.9062 29.3645 26.7389 29.5316C26.5717 29.6988 26.3731 29.8313 26.1547 29.9217C25.9362 30.0122 25.702 30.0587 25.4655 30.0586C24.988 30.0584 24.5301 29.8686 24.1925 29.5308C23.8549 29.193 23.6654 28.7349 23.6655 28.2574C23.6657 27.7798 23.8556 27.3219 24.1934 26.9843C24.5311 26.6468 24.9892 26.4572 25.4667 26.4574ZM29.6667 37.2574C24.8667 37.2574 23.6667 32.4574 23.6667 32.4574H35.6667C35.6667 32.4574 34.4667 37.2574 29.6667 37.2574Z" fill="black"/>
</svg>
