<svg width="60" height="60" viewBox="0 0 60 60" fill="none" xmlns="http://www.w3.org/2000/svg">
<circle cx="30.0001" cy="30.0577" r="29.3333" fill="white"/>
<g clip-path="url(#clip0_313_4)">
<path fill-rule="evenodd" clip-rule="evenodd" d="M31.5531 20.6831C31.5531 20.4557 31.6434 20.2377 31.8042 20.077C31.9649 19.9162 32.183 19.8259 32.4103 19.8259H35.196C35.4233 19.8259 35.6413 19.9162 35.8021 20.077C35.9628 20.2377 36.0531 20.4557 36.0531 20.6831V23.0951H38.4634C38.6908 23.0951 38.9088 23.1854 39.0695 23.3461C39.2303 23.5069 39.3206 23.7249 39.3206 23.9522V26.7379C39.3206 26.9653 39.2303 27.1833 39.0695 27.344C38.9088 27.5048 38.6908 27.5951 38.4634 27.5951H36.0531V30.0054C36.0531 30.2327 35.9628 30.4507 35.8021 30.6114C35.6413 30.7722 35.4233 30.8625 35.196 30.8625H32.4103C32.183 30.8625 31.9649 30.7722 31.8042 30.6114C31.6434 30.4507 31.5531 30.2327 31.5531 30.0054V27.5951H29.1429C28.9155 27.5951 28.6975 27.5048 28.5368 27.344C28.376 27.1833 28.2857 26.9653 28.2857 26.7379V23.9522C28.2857 23.7249 28.376 23.5069 28.5368 23.3461C28.6975 23.1854 28.9155 23.0951 29.1429 23.0951H31.5531V20.6831ZM21.1594 30.0585H18V36.9156L21.1337 40.0494C21.7705 40.6864 22.5266 41.1916 23.3587 41.5364C24.1908 41.8811 25.0827 42.0585 25.9834 42.0585H36C36.682 42.0585 37.336 41.7876 37.8183 41.3053C38.3005 40.8231 38.5714 40.1691 38.5714 39.4871C38.5714 38.8051 38.3005 38.151 37.8183 37.6688C37.336 37.1866 36.682 36.9156 36 36.9156H31.2394C31.0612 37.5166 30.7299 38.0609 30.2779 38.4953C29.8259 38.9296 29.2689 39.2391 28.6613 39.3932C28.0537 39.5474 27.4165 39.5411 26.8121 39.3748C26.2077 39.2085 25.6569 38.8881 25.2137 38.4448L22.728 35.9591C22.6285 35.8596 22.5496 35.7414 22.4957 35.6114C22.4419 35.4814 22.4141 35.3421 22.4141 35.2014C22.4141 35.0606 22.4419 34.9213 22.4957 34.7913C22.5496 34.6613 22.6285 34.5431 22.728 34.4436C22.8275 34.3441 22.9456 34.2652 23.0756 34.2114C23.2057 34.1575 23.345 34.1298 23.4857 34.1298C23.6264 34.1298 23.7658 34.1575 23.8958 34.2114C24.0258 34.2652 24.1439 34.3441 24.2434 34.4436L26.7291 36.9294C26.991 37.1906 27.3414 37.3439 27.711 37.3588C28.0806 37.3737 28.4423 37.2492 28.7243 37.0099C29.0064 36.7706 29.1881 36.434 29.2336 36.0669C29.279 35.6998 29.1849 35.3291 28.9697 35.0282L26.0091 32.0676C25.3723 31.4306 24.6163 30.9254 23.7842 30.5806C22.952 30.2359 22.0601 30.0585 21.1594 30.0585Z" fill="black"/>
</g>
<defs>
<clipPath id="clip0_313_4">
<rect width="24" height="24" fill="white" transform="translate(18 18.0574)"/>
</clipPath>
</defs>
</svg>
