<svg width="60" height="60" viewBox="0 0 60 60" fill="none" xmlns="http://www.w3.org/2000/svg">
<circle cx="30.0001" cy="30.0577" r="29.3333" fill="white"/>
<path d="M27.4741 34.8258L27.4724 34.8207C27.3631 34.7873 27.2545 34.7519 27.1466 34.7144C25.5979 34.1659 24.2389 33.1847 23.2308 31.8873C22.4163 30.8384 21.8566 29.6145 21.5959 28.3123C21.3352 27.01 21.3806 25.6651 21.7286 24.3834C22.0766 23.1017 22.7177 21.9184 23.6012 20.9269C24.4847 19.9353 25.5865 19.1626 26.8197 18.6697C28.0529 18.1768 29.3838 17.9771 30.7073 18.0865C32.0309 18.1959 33.3109 18.6113 34.4465 19.3C35.582 19.9886 36.5421 20.9317 37.2508 22.0549C37.9596 23.178 38.3977 24.4505 38.5305 25.7719C38.5768 26.2433 38.1877 26.6274 37.7145 26.6274C37.2413 26.6274 36.8624 26.2416 36.8058 25.7719C36.6528 24.5595 36.1786 23.41 35.4323 22.4423C34.686 21.4747 33.6946 20.724 32.5609 20.2681C31.4271 19.8121 30.1921 19.6673 28.9836 19.8488C27.7752 20.0303 26.6371 20.5313 25.6873 21.3002C24.7375 22.0691 24.0103 23.0778 23.5811 24.2219C23.1519 25.3661 23.0363 26.6042 23.2461 27.808C23.4559 29.0119 23.9836 30.1378 24.7746 31.0693C25.5655 32.0008 26.591 32.7041 27.745 33.1063C28.036 32.5754 28.5051 32.1642 29.0695 31.9452C29.6339 31.7261 30.2576 31.7132 30.8306 31.9088C31.4036 32.1043 31.8892 32.4958 32.2019 33.0142C32.5147 33.5326 32.6345 34.1447 32.5403 34.7428C32.4461 35.3408 32.1439 35.8865 31.6869 36.2837C31.2299 36.6808 30.6475 36.904 30.0421 36.9139C29.4367 36.9239 28.8473 36.7199 28.3775 36.3379C27.9078 35.956 27.5879 35.4205 27.4741 34.8258ZM26.1145 36.1545C24.4362 35.4676 22.9686 34.3506 21.8593 32.916C21.577 33.338 21.4266 33.8346 21.4272 34.3424V35.1996C21.4272 38.5788 24.6161 42.0574 29.9995 42.0574C35.3828 42.0574 38.5717 38.5788 38.5717 35.1996V34.3424C38.5717 33.6603 38.3007 33.0062 37.8185 32.5239C37.3362 32.0416 36.6821 31.7707 36 31.7707H33.4284C33.7879 32.2509 34.0427 32.8013 34.1762 33.3862C34.3096 33.9711 34.3188 34.5775 34.2031 35.1662C34.0874 35.7549 33.8494 36.3127 33.5046 36.8036C33.1597 37.2945 32.7156 37.7076 32.201 38.016C31.6864 38.3244 31.1128 38.5214 30.5173 38.5942C29.9218 38.6669 29.3176 38.6139 28.7439 38.4384C28.1702 38.2629 27.6397 37.969 27.1868 37.5756C26.7339 37.1822 26.3686 36.698 26.1145 36.1545ZM35.1428 26.6274C35.1428 25.0604 34.4416 23.6562 33.3358 22.7133C32.7959 22.256 32.1674 21.915 31.4897 21.7116C30.8119 21.5082 30.0995 21.4469 29.397 21.5314C28.6945 21.616 28.017 21.8445 27.4069 22.2029C26.7967 22.5612 26.2671 23.0415 25.8511 23.6139C25.435 24.1863 25.1416 24.8383 24.9891 25.5292C24.8365 26.2202 24.8282 26.9352 24.9646 27.6295C25.101 28.3238 25.3792 28.9825 25.7818 29.5644C26.1844 30.1462 26.7027 30.6388 27.3044 31.0112C28.066 30.3919 29.0178 30.0541 29.9995 30.0545C30.9807 30.0531 31.9325 30.3897 32.6946 31.0078C33.443 30.5477 34.061 29.9035 34.4896 29.1367C34.9182 28.3698 35.1431 27.5059 35.1428 26.6274Z" fill="black"/>
</svg>
